<?xml version="1.0" encoding="utf-8"?>
<!-- Generator: Adobe Illustrator 19.0.0, SVG Export Plug-In . SVG Version: 6.00 Build 0)  -->
<svg version="1.1" id="Layer_1" xmlns="http://www.w3.org/2000/svg" xmlns:xlink="http://www.w3.org/1999/xlink" x="0px" y="0px"
	 width="1024px" height="768px" viewBox="0 0 1024 768" style="enable-background:new 0 0 1024 768;" xml:space="preserve">
<path id="XMLID_4_" style="opacity:0.48;fill:#FF00FF;" d="M176.2,794c77.2,0,139.6-54.6,139.6-121.3S251,551.3,176,551.3v0
	c-25,0-46.3-18-46.3-40.3s21.1-40.3,46.8-40.3c60,0,108.7-42.1,108.7-94s-48.7-94-108.7-94c-25.7,0-46.8-18-46.8-40.3
	s21.3-40.3,46.3-40.3v0c90,0,163.3-63.1,163.3-141s-73.2-141-163.2-141L-84-79.8V794H176.2z"/>
<path id="XMLID_11_" style="opacity:0.48;fill:#FF00FF;" d="M852.1,842c-77.2,0-139.8-54.6-139.8-121.3S777,599.3,852,599.3v0
	c25,0,46.4-18,46.4-40.3s-21-40.3-46.7-40.3c-60,0-108.6-42.1-108.6-94s48.7-94,108.7-94c25.7,0,46.6-18,46.6-40.3
	c0-22.3-21.4-40.3-46.4-40.3v0c-90,0-163.2-63.1-163.2-141s73.1-141,163.1-141l249.1,0.1V842H852.1z"/>
<path id="XMLID_2_" style="opacity:0.48;fill:#FFFF00;" d="M153.4,842c66.8,0,120.7-54.8,120.7-121.6S219,598.9,153,598.9v0
	c-22,0-39.9-18-39.9-40.3s18.3-40.3,40.6-40.3c51.9,0,94.1-42.1,94.1-94s-42.1-94-94-94c-22.3,0-40.6-18-40.6-40.3
	c0-22.3,17.9-40.3,39.9-40.3v0c78,0,141.4-63.1,141.4-141s-63.4-141-141.3-141L-84-32.3V842H153.4z"/>
<path id="XMLID_5_" style="opacity:0.48;fill:#FFFF00;" d="M876,794c-66.8,0-121.4-54.6-121.4-121.3S809,551.3,875,551.3v0
	c22,0,40.6-18,40.6-40.3s-18-40.3-40.2-40.3c-51.9,0-93.9-42.1-93.9-94s42.2-94,94.1-94c22.3,0,39.9-18,39.9-40.3
	S897,202.1,875,202.1v0c-78,0-140.7-63.1-140.7-141s63.1-141,141-141l225.7,0.1V794H876z"/>
</svg>
