<?xml version="1.0" encoding="utf-8"?>
<!-- Generator: Adobe Illustrator 19.0.0, SVG Export Plug-In . SVG Version: 6.00 Build 0)  -->
<svg version="1.1" id="Layer_1" xmlns="http://www.w3.org/2000/svg" xmlns:xlink="http://www.w3.org/1999/xlink" x="0px" y="0px"
	 width="423.3px" height="873.9px" viewBox="0 0 423.3 873.9" style="enable-background:new 0 0 423.3 873.9;" xml:space="preserve"
	>
<style type="text/css">
	.st0{opacity:0.48;fill:#FFFF00;}
</style>
<path id="XMLID_2_" class="st0" d="M237.4,873.9c66.8,0,120.7-54.7,120.7-121.5S303,631,237,631v0c-22,0-39.9-18-39.9-40.3
	s18.3-40.3,40.6-40.3c51.9,0,94.1-42.1,94.1-94s-42.1-94-94-94c-22.3,0-40.6-18-40.6-40.3c0-22.3,17.9-40.3,39.9-40.3v0
	c78,0,141.4-63.1,141.4-141S315-0.2,237.1-0.2L0-0.1v874H237.4z"/>
</svg>
