<?xml version="1.0" encoding="utf-8"?>
<!-- Generator: Adobe Illustrator 19.0.0, SVG Export Plug-In . SVG Version: 6.00 Build 0)  -->
<svg version="1.1" id="Layer_1" xmlns="http://www.w3.org/2000/svg" xmlns:xlink="http://www.w3.org/1999/xlink" x="0px" y="0px"
	 width="423.3px" height="873.9px" viewBox="0 0 423.3 873.9" style="enable-background:new 0 0 423.3 873.9;" xml:space="preserve"
	>
<style type="text/css">
	.st0{opacity:0.48;fill:#FFFF00;}
</style>
<path id="XMLID_5_" class="st0" d="M198.3,873.9c-66.8,0-121.6-54.6-121.6-121.3S131,631.3,197,631.3v0c22,0,40.8-18,40.8-40.3
	c0-22.3-17.9-40.3-40.1-40.3c-51.9,0-93.8-42.1-93.8-94s42.2-94,94.1-94c22.3,0,39.8-18,39.8-40.3c0-22.3-18.7-40.3-40.7-40.3v0
	c-78,0-140.6-63.1-140.6-141S119.5,0,197.3,0L423,0.1v873.8H198.3z"/>
</svg>
