<?xml version="1.0" encoding="utf-8"?>
<!-- Generator: Adobe Illustrator 19.0.0, SVG Export Plug-In . SVG Version: 6.00 Build 0)  -->
<svg version="1.1" id="Layer_1" xmlns="http://www.w3.org/2000/svg" xmlns:xlink="http://www.w3.org/1999/xlink" x="0px" y="0px"
	 width="423.3px" height="873.9px" viewBox="0 0 423.3 873.9" style="enable-background:new 0 0 423.3 873.9;" xml:space="preserve"
	>
<style type="text/css">
	.st0{opacity:0.48;fill:#FF00FF;}
</style>
<path id="XMLID_11_" class="st0" d="M174.1,873.9c-77.2,0-139.8-54.6-139.8-121.3S99,631.3,174,631.3v0c25,0,46.4-18,46.4-40.3
	c0-22.3-21-40.3-46.7-40.3c-60,0-108.6-42.1-108.6-94s48.7-94,108.7-94c25.7,0,46.6-18,46.6-40.3c0-22.3-21.4-40.3-46.4-40.3v0
	c-90,0-163.1-63.1-163.1-141S83.9,0,174,0l249,0.1v873.8H174.1z"/>
</svg>
