<?xml version="1.0" encoding="utf-8"?>
<!-- Generator: Adobe Illustrator 19.0.0, SVG Export Plug-In . SVG Version: 6.00 Build 0)  -->
<svg version="1.1" id="Layer_1" xmlns="http://www.w3.org/2000/svg" xmlns:xlink="http://www.w3.org/1999/xlink" x="0px" y="0px"
	 width="423.3px" height="873.9px" viewBox="0 0 423.3 873.9" style="enable-background:new 0 0 423.3 873.9;" xml:space="preserve"
	>
<style type="text/css">
	.st0{opacity:0.48;fill:#FF00FF;}
</style>
<path id="XMLID_4_" class="st0" d="M260.2,873.9c77.2,0,139.6-54.6,139.6-121.3S335,631.3,260,631.3v0c-25,0-46.3-18-46.3-40.3
	c0-22.3,21.1-40.3,46.8-40.3c60,0,108.7-42.1,108.7-94s-48.7-94-108.7-94c-25.7,0-46.8-18-46.8-40.3c0-22.3,21.3-40.3,46.3-40.3v0
	c90,0,163.3-63.1,163.3-141S350.1,0,260.1,0L0,0.1v873.8H260.2z"/>
</svg>
