vg<?xml version="1.0" encoding="UTF-8" standalone="no"?>
<!DOCTYPE svg PUBLIC "-//W3C//DTD SVG 1.1//EN" "http://www.w3.org/Graphics/SVG/1.1/DTD/svg11.dtd">
<svg version="1.1" xmlns="http://www.w3.org/2000/svg" xmlns:xlink="http://www.w3.org/1999/xlink" preserveAspectRatio="xMidYMid meet" viewBox="208.43578003641565 -1 164.57458624968862 647.4848484848485" width="160.57" height="643.48"><defs><path d="M319.18 0.06C300.69 39.34 283.37 6.99 283.37 75.15C283.37 143.3 363.07 101.72 360.76 203.37C358.45 305.02 313.37 250.7 279.9 323.51C245.25 398.88 371.16 376.64 370 467.9C369.23 528.74 326.11 587.27 240.62 643.48C278.36 592.66 296.84 546.45 296.07 504.87C294.92 442.49 209.44 435.56 209.44 353.54C209.44 271.52 297.23 301.56 296.07 232.25C294.92 162.94 233.98 178.53 234.85 98.25C234.56 59.55 244.09 -2.25 319.18 0.06Z" id="giPSeuBSn"></path></defs><g><g><g><use xlink:href="#giPSeuBSn" opacity="1" fill-opacity="0" stroke="#000000" stroke-width="1" stroke-opacity="1"></use></g></g></g></svg>